<?xml version="1.0" encoding="UTF-8" standalone="no"?>
<!-- Created with Inkscape (http://www.inkscape.org/) -->

<svg
   xmlns:dc="http://purl.org/dc/elements/1.1/"
   xmlns:cc="http://creativecommons.org/ns#"
   xmlns:rdf="http://www.w3.org/1999/02/22-rdf-syntax-ns#"
   xmlns:svg="http://www.w3.org/2000/svg"
   xmlns="http://www.w3.org/2000/svg"
   xmlns:sodipodi="http://sodipodi.sourceforge.net/DTD/sodipodi-0.dtd"
   xmlns:inkscape="http://www.inkscape.org/namespaces/inkscape"
   width="40"
   height="40"
   viewBox="0 0 40 40.000001"
   id="svg2"
   version="1.1"
   inkscape:version="0.91 r13725"
   sodipodi:docname="cajafuerte_form_icon_insurance.svg">
  <defs
     id="defs4" />
  <sodipodi:namedview
     id="base"
     pagecolor="#ffffff"
     bordercolor="#666666"
     borderopacity="1.0"
     inkscape:pageopacity="0.0"
     inkscape:pageshadow="2"
     inkscape:zoom="5.6"
     inkscape:cx="19.805423"
     inkscape:cy="17.807701"
     inkscape:document-units="px"
     inkscape:current-layer="layer1"
     showgrid="false"
     units="px"
     inkscape:window-width="1920"
     inkscape:window-height="1027"
     inkscape:window-x="1912"
     inkscape:window-y="-8"
     inkscape:window-maximized="1" />
  <metadata
     id="metadata7">
    <rdf:RDF>
      <cc:Work
         rdf:about="">
        <dc:format>image/svg+xml</dc:format>
        <dc:type
           rdf:resource="http://purl.org/dc/dcmitype/StillImage" />
        <dc:title></dc:title>
      </cc:Work>
    </rdf:RDF>
  </metadata>
  <g
     inkscape:label="Layer 1"
     inkscape:groupmode="layer"
     id="layer1"
     transform="translate(0,-1012.3622)">
    <g
       id="g5590"
       transform="matrix(0.08163465,0,0,0.08163465,-0.89855262,1010.5651)">
      <path
         id="path5534"
         d="m 66.355,236.527 c 21.476,0 39.606,14.284 45.437,33.865 l 3.95,0 c 5.83,-19.582 23.961,-33.865 45.437,-33.865 21.476,0 39.606,14.284 45.437,33.865 l 3.95,0 c 5.83,-19.582 23.961,-33.865 45.437,-33.865 21.476,0 39.606,14.284 45.437,33.865 l 3.95,0 c 5.83,-19.582 23.961,-33.865 45.437,-33.865 21.476,0 39.606,14.284 45.437,33.865 l 3.948,0 c 5.83,-19.582 23.961,-33.865 45.437,-33.865 21.476,0 39.606,14.284 45.437,33.865 l 1.975,0 C 493.061,139.469 386.927,33.335 256.004,33.335 125.081,33.335 18.943,139.47 18.943,270.393 l 1.975,0 c 5.83,-19.582 23.961,-33.866 45.437,-33.866 z"
         style="fill:#f6c65b;fill-opacity:1"
         inkscape:connector-curvature="0" />
      <path
         id="path5536"
         d="m 18.944,270.393 1.975,0 c 5.83,-19.582 23.961,-33.865 45.437,-33.865 21.476,0 39.606,14.284 45.437,33.865 l 3.95,0 c 5.83,-19.582 23.961,-33.865 45.437,-33.865 21.476,0 39.606,14.284 45.437,33.865 l 3.95,0 c 5.83,-19.582 23.961,-33.865 45.437,-33.865 l 0,-203.192 c -130.926,0 -237.06,106.134 -237.06,237.057 z"
         style="fill:#f6c65b;fill-opacity:1"
         inkscape:connector-curvature="0" />
      <path
         id="path5538"
         d="m 256.001,33.336 c -76.795,0 -139.107,105.159 -139.68,235.247 6.38,-18.646 24.049,-32.056 44.858,-32.056 21.476,0 39.606,14.284 45.437,33.865 l 3.95,0 c 5.83,-19.582 23.961,-33.865 45.437,-33.865 21.476,0 39.606,14.284 45.437,33.865 l 3.95,0 c 5.83,-19.582 23.961,-33.865 45.437,-33.865 20.809,0 38.477,13.41 44.858,32.056 C 395.107,138.495 332.795,33.336 256.001,33.336 Z"
         style="fill:#3e9bd5;fill-opacity:1"
         inkscape:connector-curvature="0" />
      <path
         id="path5540"
         d="m 116.32,268.583 c 6.38,-18.646 24.049,-32.056 44.858,-32.056 21.476,0 39.606,14.284 45.437,33.865 l 3.95,0 c 5.83,-19.582 23.961,-33.865 45.437,-33.865 l 0,-203.191 c -76.796,0 -139.108,105.159 -139.682,235.247 z"
         style="fill:#3e9bd5;fill-opacity:1"
         inkscape:connector-curvature="0" />
      <path
         id="path5542"
         d="m 256.001,33.336 c -27.767,0 -50.328,103.975 -50.787,233.046 0.523,1.31 0.995,2.646 1.401,4.011 l 3.95,0 c 5.83,-19.582 23.961,-33.865 45.437,-33.865 21.476,0 39.606,14.284 45.437,33.865 l 3.95,0 c 0.406,-1.365 0.878,-2.701 1.401,-4.011 C 306.329,137.311 283.768,33.336 256.001,33.336 Z"
         style="fill:#f6c65b;fill-opacity:1"
         inkscape:connector-curvature="0" />
      <path
         id="path5544"
         d="m 205.213,266.382 c 0.523,1.31 0.995,2.646 1.401,4.011 l 3.95,0 c 5.83,-19.582 23.961,-33.865 45.437,-33.865 l 0,-203.192 c -27.768,0 -50.328,103.975 -50.788,233.046 z"
         style="fill:#ffffff"
         inkscape:connector-curvature="0" />
      <g
         id="g5546">
        <path
           id="path5548"
           d="m 417.347,159.806 c -3.018,0 -5.901,-1.729 -7.231,-4.654 -6.679,-14.694 -14.66,-28.472 -23.722,-40.953 -2.576,-3.547 -1.787,-8.51 1.76,-11.087 3.544,-2.573 8.51,-1.789 11.087,1.76 9.687,13.34 18.208,28.047 25.328,43.71 1.814,3.991 0.049,8.697 -3.942,10.511 -1.066,0.483 -2.182,0.713 -3.28,0.713 z"
           style="fill:#f0353d;fill-opacity:1"
           inkscape:connector-curvature="0" />
        <path
           id="path5550"
           d="m 433.515,206.367 c -3.556,0 -6.792,-2.408 -7.695,-6.014 -2.092,-8.368 -4.591,-16.668 -7.427,-24.67 -1.465,-4.132 0.697,-8.668 4.83,-10.133 4.133,-1.461 8.667,0.7 10.133,4.829 3.004,8.477 5.65,17.265 7.865,26.123 1.063,4.252 -1.522,8.563 -5.775,9.626 -0.645,0.162 -1.293,0.239 -1.931,0.239 z"
           style="fill:#f0353d;fill-opacity:1"
           inkscape:connector-curvature="0" />
      </g>
      <path
         id="path5552"
         d="M 429.237,97.156 C 384.84,52.759 326.402,27.516 263.938,25.54 l 0,-17.603 C 263.938,3.553 260.385,0 256.001,0 c -4.383,0 -7.937,3.553 -7.937,7.937 l 0,17.603 C 185.599,27.516 127.16,52.759 82.764,97.156 36.49,143.429 11.007,204.952 11.007,270.393 c 0,4.384 3.554,7.937 7.937,7.937 l 1.975,0 c 3.511,0 6.606,-2.307 7.607,-5.672 4.941,-16.599 20.498,-28.193 37.83,-28.193 17.332,0 32.888,11.594 37.831,28.193 1.002,3.366 4.096,5.672 7.607,5.672 l 3.948,0 c 0.073,0 0.143,-0.016 0.216,-0.018 0.116,0.005 0.232,0.018 0.349,0.018 l 1.164,0 c 4.383,0 7.937,-3.553 7.937,-7.937 0,-0.819 -0.13,-1.606 -0.361,-2.35 6.251,-14.229 20.376,-23.578 36.131,-23.578 15.775,0 29.776,9.213 36.093,23.57 -0.002,0.785 -0.005,1.569 -0.005,2.358 0,4.384 3.554,7.937 7.937,7.937 l 0.423,0 c 0.206,0 0.408,-0.015 0.611,-0.031 0.127,0.006 0.25,0.031 0.378,0.031 l 3.95,0 c 3.511,0 6.605,-2.307 7.607,-5.672 4.173,-14.013 15.909,-24.458 29.892,-27.373 l 0,211.79 0,3.811 c 0,0.819 0.125,1.61 0.355,2.353 3.074,27.395 26.368,48.763 54.571,48.763 30.285,0 54.924,-24.639 54.924,-54.925 0,-4.384 -3.553,-7.937 -7.937,-7.937 -4.384,0 -7.937,3.553 -7.937,7.937 0,21.533 -17.518,39.051 -39.05,39.051 -21.532,0 -39.051,-17.519 -39.051,-39.051 l 0,-211.793 c 13.983,2.915 25.721,13.36 29.892,27.373 1.002,3.366 4.097,5.672 7.608,5.672 l 3.948,0 c 0.192,0 0.377,-0.033 0.566,-0.047 0.278,0.03 0.56,0.047 0.846,0.047 4.385,0 7.937,-3.553 7.937,-7.937 0,-0.788 -0.003,-1.573 -0.006,-2.357 6.317,-14.357 20.318,-23.57 36.094,-23.57 16.468,0 31.154,10.217 36.931,25.544 l 0.003,0.384 c 0,4.384 3.553,7.937 7.937,7.937 0.119,0 0.233,-0.013 0.349,-0.018 0.073,0.002 0.143,0.018 0.216,0.018 l 3.948,0 c 3.511,0 6.605,-2.307 7.608,-5.672 4.942,-16.598 20.498,-28.193 37.83,-28.193 17.332,0 32.887,11.594 37.83,28.193 1.002,3.366 4.097,5.672 7.608,5.672 l 1.974,0 c 4.384,0 7.937,-3.553 7.937,-7.937 C 500.994,204.952 475.511,143.429 429.237,97.156 Z M 66.355,228.59 c -14.367,0 -27.866,5.683 -37.932,15.142 C 39.069,152.244 103.832,77.048 189.757,51.05 175.445,62.907 162.277,78.704 150.752,98.127 126.515,138.972 111.923,191.838 108.953,248.691 98.625,236.298 83.082,228.59 66.355,228.59 Z m 94.823,0 c -13.476,0 -26.1,4.884 -35.889,13.218 7.099,-98.212 50.254,-177.446 105.454,-196.268 -6.905,12.403 -12.966,30.494 -18.132,54.229 -8.42,38.689 -13.636,88.579 -14.989,142.46 -9.854,-8.632 -22.67,-13.639 -36.444,-13.639 z m 94.823,0 c -16.754,0 -32.32,7.731 -42.647,20.159 1.073,-55.236 6.237,-106.405 14.768,-145.605 10.652,-48.941 22.893,-61.872 27.878,-61.872 4.986,0 17.227,12.931 27.879,61.872 8.531,39.201 13.694,90.368 14.767,145.605 C 288.32,236.321 272.754,228.59 256.001,228.59 Z m 94.822,0 c -13.775,0 -26.592,5.007 -36.445,13.64 -1.353,-53.882 -6.569,-103.773 -14.989,-142.46 -5.166,-23.735 -11.226,-41.826 -18.132,-54.229 55.199,18.823 98.354,98.056 105.454,196.268 -9.788,-8.335 -22.41,-13.219 -35.888,-13.219 z m 94.823,0 c -16.726,0 -32.27,7.708 -42.597,20.1 -2.971,-56.852 -17.563,-109.72 -41.8,-150.565 -11.526,-19.424 -24.693,-35.22 -39.005,-47.078 85.925,25.998 150.689,101.195 161.335,192.682 -10.067,-9.456 -23.566,-15.139 -37.933,-15.139 z"
         inkscape:connector-curvature="0"
         style="fill:#080342;fill-opacity:1" />
      <g
         id="g5554" />
      <g
         id="g5556" />
      <g
         id="g5558" />
      <g
         id="g5560" />
      <g
         id="g5562" />
      <g
         id="g5564" />
      <g
         id="g5566" />
      <g
         id="g5568" />
      <g
         id="g5570" />
      <g
         id="g5572" />
      <g
         id="g5574" />
      <g
         id="g5576" />
      <g
         id="g5578" />
      <g
         id="g5580" />
      <g
         id="g5582" />
    </g>
  </g>
</svg>
