<?xml version="1.0" encoding="UTF-8" standalone="no"?>
<!-- Created with Inkscape (http://www.inkscape.org/) -->

<svg
   xmlns:dc="http://purl.org/dc/elements/1.1/"
   xmlns:cc="http://creativecommons.org/ns#"
   xmlns:rdf="http://www.w3.org/1999/02/22-rdf-syntax-ns#"
   xmlns:svg="http://www.w3.org/2000/svg"
   xmlns="http://www.w3.org/2000/svg"
   xmlns:sodipodi="http://sodipodi.sourceforge.net/DTD/sodipodi-0.dtd"
   xmlns:inkscape="http://www.inkscape.org/namespaces/inkscape"
   width="40"
   height="40"
   viewBox="0 0 40 40.000001"
   id="svg2"
   version="1.1"
   inkscape:version="0.91 r13725"
   sodipodi:docname="cajafuerte_form_icon_cards.svg">
  <defs
     id="defs4" />
  <sodipodi:namedview
     id="base"
     pagecolor="#ffffff"
     bordercolor="#666666"
     borderopacity="1.0"
     inkscape:pageopacity="0.0"
     inkscape:pageshadow="2"
     inkscape:zoom="11.2"
     inkscape:cx="38.693046"
     inkscape:cy="10.28575"
     inkscape:document-units="px"
     inkscape:current-layer="layer1"
     showgrid="false"
     units="px"
     inkscape:window-width="1920"
     inkscape:window-height="1027"
     inkscape:window-x="1912"
     inkscape:window-y="-8"
     inkscape:window-maximized="1" />
  <metadata
     id="metadata7">
    <rdf:RDF>
      <cc:Work
         rdf:about="">
        <dc:format>image/svg+xml</dc:format>
        <dc:type
           rdf:resource="http://purl.org/dc/dcmitype/StillImage" />
        <dc:title></dc:title>
      </cc:Work>
    </rdf:RDF>
  </metadata>
  <g
     inkscape:label="Layer 1"
     inkscape:groupmode="layer"
     id="layer1"
     transform="translate(0,-1012.3622)">
    <g
       id="g4354"
       transform="matrix(0.07812515,0,0,0.07812515,0,1011.881)">
      <path
         id="path4258"
         d="m 478.33,50.772 -359.148,0 c -14.168,0 -25.653,11.485 -25.653,25.653 l 0,222.33 c 0,14.168 11.485,25.653 25.653,25.653 l 359.148,0 c 14.168,0 25.653,-11.485 25.653,-25.653 l 0,-222.329 c 0,-14.168 -11.485,-25.654 -25.653,-25.654 z"
         style="fill:#f6c65b;fill-opacity:1"
         inkscape:connector-curvature="0" />
      <path
         id="path4260"
         d="m 392.818,161.937 -299.29,0 0,136.818 c 0,14.168 11.485,25.653 25.653,25.653 l 324.944,0 0,-111.164 c 0,-28.336 -22.97,-51.307 -51.307,-51.307 z"
         style="fill:#0096dc"
         inkscape:connector-curvature="0" />
      <rect
         id="rect4262"
         height="51.306999"
         width="410.45499"
         style="fill:#ffffff"
         y="84.976997"
         x="93.528" />
      <path
         id="path4264"
         d="m 392.818,187.591 -359.148,0 c -14.168,0 -25.653,11.485 -25.653,25.653 l 0,222.33 c 0,14.168 11.485,25.653 25.653,25.653 l 359.148,0 c 14.168,0 25.653,-11.485 25.653,-25.653 l 0,-222.33 c 10e-4,-14.168 -11.484,-25.653 -25.653,-25.653 z"
         style="fill:#f6c65b;fill-opacity:1"
         inkscape:connector-curvature="0" />
      <path
         id="path4266"
         d="m 110.63,350.063 -51.306,0 c -4.727,0 -8.551,-3.829 -8.551,-8.551 0,-4.722 3.825,-8.551 8.551,-8.551 l 51.307,0 c 4.727,0 8.551,3.829 8.551,8.551 0,4.722 -3.825,8.551 -8.552,8.551 z"
         style="fill:#c7cfe2"
         inkscape:connector-curvature="0" />
      <g
         id="g4268">
        <path
           id="path4270"
           d="m 230.347,384.267 -17.102,0 c -4.727,0 -8.551,-3.829 -8.551,-8.551 0,-4.722 3.825,-8.551 8.551,-8.551 l 17.102,0 c 4.727,0 8.551,3.829 8.551,8.551 0,4.722 -3.825,8.551 -8.551,8.551 z"
           style="fill:#afb9d2"
           inkscape:connector-curvature="0" />
        <path
           id="path4272"
           d="m 281.653,384.267 -17.102,0 c -4.727,0 -8.551,-3.829 -8.551,-8.551 0,-4.722 3.825,-8.551 8.551,-8.551 l 17.102,0 c 4.727,0 8.551,3.829 8.551,8.551 10e-4,4.722 -3.824,8.551 -8.551,8.551 z"
           style="fill:#afb9d2"
           inkscape:connector-curvature="0" />
      </g>
      <g
         id="g4274">
        <path
           id="path4276"
           d="m 196.142,350.063 -51.307,0 c -4.727,0 -8.551,-3.829 -8.551,-8.551 0,-4.722 3.825,-8.551 8.551,-8.551 l 51.307,0 c 4.727,0 8.551,3.829 8.551,8.551 0,4.722 -3.824,8.551 -8.551,8.551 z"
           style="fill:#c7cfe2"
           inkscape:connector-curvature="0" />
        <path
           id="path4278"
           d="m 281.653,350.063 -51.307,0 c -4.727,0 -8.551,-3.829 -8.551,-8.551 0,-4.722 3.825,-8.551 8.551,-8.551 l 51.307,0 c 4.727,0 8.551,3.829 8.551,8.551 10e-4,4.722 -3.824,8.551 -8.551,8.551 z"
           style="fill:#c7cfe2"
           inkscape:connector-curvature="0" />
        <path
           id="path4280"
           d="m 119.182,418.472 -59.858,0 c -4.727,0 -8.551,-3.829 -8.551,-8.551 0,-4.722 3.825,-8.551 8.551,-8.551 l 59.858,0 c 4.727,0 8.551,3.829 8.551,8.551 0,4.722 -3.825,8.551 -8.551,8.551 z"
           style="fill:#c7cfe2"
           inkscape:connector-curvature="0" />
        <path
           id="path4282"
           d="m 196.142,418.472 -42.756,0 c -4.727,0 -8.551,-3.829 -8.551,-8.551 0,-4.722 3.824,-8.551 8.551,-8.551 l 42.756,0 c 4.727,0 8.551,3.829 8.551,8.551 0,4.722 -3.824,8.551 -8.551,8.551 z"
           style="fill:#c7cfe2"
           inkscape:connector-curvature="0" />
        <path
           id="path4284"
           d="m 367.165,350.063 -51.307,0 c -4.727,0 -8.551,-3.829 -8.551,-8.551 0,-4.722 3.825,-8.551 8.551,-8.551 l 51.307,0 c 4.727,0 8.551,3.829 8.551,8.551 0,4.722 -3.824,8.551 -8.551,8.551 z"
           style="fill:#c7cfe2"
           inkscape:connector-curvature="0" />
      </g>
      <g
         id="g4286">
        <path
           id="path4288"
           d="m 110.63,307.307 -34.204,0 c -9.446,0 -17.102,-7.656 -17.102,-17.102 l 0,-17.102 c 0,-9.446 7.656,-17.102 17.102,-17.102 l 34.205,0 c 9.446,0 17.102,7.656 17.102,17.102 l 0,17.102 c 0,9.445 -7.657,17.102 -17.103,17.102 z"
           style="fill:#3e9bd5;fill-opacity:1"
           inkscape:connector-curvature="0" />
        <circle
           id="circle4290"
           r="34.205002"
           cy="264.55099"
           cx="341.51099"
           style="fill:#ffdc64" />
      </g>
      <circle
         id="circle4292"
         r="34.205002"
         cy="264.55099"
         cx="298.75601"
         style="fill:#f0353d;fill-opacity:1" />
      <path
         id="path4294"
         d="m 307.307,264.551 c 0,10.755 5.064,20.233 12.827,26.503 7.762,-6.27 12.827,-15.748 12.827,-26.503 0,-10.756 -5.064,-20.233 -12.827,-26.503 -7.763,6.27 -12.827,15.748 -12.827,26.503 z"
         style="fill:#ff8c5a"
         inkscape:connector-curvature="0" />
      <path
         id="path4296"
         d="m 478.33,42.756 -359.148,0 c -18.566,0 -33.67,15.105 -33.67,33.67 l 0,103.148 -51.842,0 C 15.104,179.574 0,194.679 0,213.244 l 0,222.33 c 0,18.566 15.105,33.67 33.67,33.67 l 359.148,0 c 18.566,0 33.67,-15.105 33.67,-33.67 l 0,-103.148 51.841,0 c 18.566,0 33.67,-15.105 33.67,-33.67 l 0,-222.33 C 512,57.86 496.895,42.756 478.33,42.756 Z m -376.785,50.238 394.422,0 0,35.273 -394.422,0 0,-35.273 z m 17.637,-34.205 359.148,0 c 9.725,0 17.637,7.912 17.637,17.637 l 0,0.534 -394.422,0 0,-0.534 c 0,-9.725 7.912,-17.637 17.637,-17.637 z m 273.636,394.422 -359.148,0 c -9.725,0 -17.637,-7.912 -17.637,-17.637 l 0,-222.33 c 0,-9.725 7.912,-17.637 17.637,-17.637 l 359.148,0 c 9.725,0 17.637,7.912 17.637,17.637 l 0,222.33 c 0,9.725 -7.912,17.637 -17.637,17.637 z m 85.512,-136.819 -51.841,0 0,-103.148 c 0,-18.566 -15.105,-33.67 -33.67,-33.67 l -291.274,0 0,-35.273 394.422,0 0,154.455 c 0,9.725 -7.912,17.636 -17.637,17.636 z"
         inkscape:connector-curvature="0"
         style="fill:#080342;fill-opacity:1" />
      <path
         id="path4298"
         d="m 59.324,349.528 51.307,0 c 4.427,0 8.017,-3.589 8.017,-8.017 0,-4.427 -3.589,-8.017 -8.017,-8.017 l -51.307,0 c -4.427,0 -8.017,3.589 -8.017,8.017 0,4.428 3.589,8.017 8.017,8.017 z"
         inkscape:connector-curvature="0" />
      <path
         id="path4300"
         d="m 230.347,367.699 -17.102,0 c -4.427,0 -8.017,3.589 -8.017,8.017 0,4.427 3.589,8.017 8.017,8.017 l 17.102,0 c 4.427,0 8.017,-3.589 8.017,-8.017 -0.001,-4.427 -3.59,-8.017 -8.017,-8.017 z"
         inkscape:connector-curvature="0" />
      <path
         id="path4302"
         d="m 281.653,367.699 -17.102,0 c -4.427,0 -8.017,3.589 -8.017,8.017 0,4.427 3.589,8.017 8.017,8.017 l 17.102,0 c 4.427,0 8.017,-3.589 8.017,-8.017 0,-4.427 -3.589,-8.017 -8.017,-8.017 z"
         inkscape:connector-curvature="0" />
      <path
         id="path4304"
         d="m 196.142,333.495 -51.307,0 c -4.427,0 -8.017,3.589 -8.017,8.017 0,4.427 3.589,8.017 8.017,8.017 l 51.307,0 c 4.427,0 8.017,-3.589 8.017,-8.017 0,-4.428 -3.59,-8.017 -8.017,-8.017 z"
         inkscape:connector-curvature="0" />
      <path
         id="path4306"
         d="m 281.653,333.495 -51.307,0 c -4.427,0 -8.017,3.589 -8.017,8.017 0,4.427 3.589,8.017 8.017,8.017 l 51.307,0 c 4.427,0 8.017,-3.589 8.017,-8.017 0,-4.428 -3.589,-8.017 -8.017,-8.017 z"
         inkscape:connector-curvature="0" />
      <path
         id="path4308"
         d="m 119.182,401.904 -59.858,0 c -4.427,0 -8.017,3.589 -8.017,8.017 0,4.427 3.589,8.017 8.017,8.017 l 59.858,0 c 4.427,0 8.017,-3.589 8.017,-8.017 -0.001,-4.428 -3.59,-8.017 -8.017,-8.017 z"
         inkscape:connector-curvature="0" />
      <path
         id="path4310"
         d="m 196.142,401.904 -42.756,0 c -4.427,0 -8.017,3.589 -8.017,8.017 0,4.427 3.589,8.017 8.017,8.017 l 42.756,0 c 4.427,0 8.017,-3.589 8.017,-8.017 0,-4.428 -3.59,-8.017 -8.017,-8.017 z"
         inkscape:connector-curvature="0" />
      <path
         id="path4312"
         d="m 367.165,333.495 -51.307,0 c -4.427,0 -8.017,3.589 -8.017,8.017 0,4.427 3.589,8.017 8.017,8.017 l 51.307,0 c 4.427,0 8.017,-3.589 8.017,-8.017 0,-4.428 -3.59,-8.017 -8.017,-8.017 z"
         inkscape:connector-curvature="0" />
      <path
         id="path4314"
         d="m 110.63,247.983 -34.204,0 c -13.851,0 -25.119,11.268 -25.119,25.119 l 0,17.102 c 0,13.851 11.268,25.119 25.119,25.119 l 34.205,0 c 13.851,0 25.119,-11.268 25.119,-25.119 l 0,-17.102 c -0.001,-13.85 -11.269,-25.119 -25.12,-25.119 z m 9.086,42.222 c 0,5.01 -4.076,9.086 -9.086,9.086 l -34.204,0 c -5.01,0 -9.086,-4.076 -9.086,-9.086 l 0,-17.102 c 0,-5.01 4.076,-9.086 9.086,-9.086 l 34.205,0 c 5.01,0 9.086,4.076 9.086,9.086 l 0,17.102 z"
         inkscape:connector-curvature="0" />
      <path
         id="path4316"
         d="m 341.511,222.33 c -7.798,0 -15.102,2.134 -21.378,5.834 -6.275,-3.701 -13.58,-5.834 -21.378,-5.834 -23.28,0 -42.221,18.941 -42.221,42.221 0,23.281 18.941,42.221 42.221,42.221 7.798,0 15.102,-2.134 21.378,-5.834 6.275,3.701 13.58,5.834 21.378,5.834 23.281,0 42.221,-18.941 42.221,-42.221 10e-4,-23.28 -18.94,-42.221 -42.221,-42.221 z m -21.377,57.319 c -3.025,-4.271 -4.81,-9.478 -4.81,-15.098 0,-5.62 1.785,-10.827 4.81,-15.098 3.025,4.271 4.81,9.478 4.81,15.098 0,5.62 -1.785,10.827 -4.81,15.098 z m -47.566,-15.098 c 0,-14.44 11.748,-26.188 26.188,-26.188 3.003,0 5.885,0.514 8.573,1.448 -5.049,6.957 -8.038,15.503 -8.038,24.74 0,9.236 2.989,17.781 8.038,24.74 -2.688,0.934 -5.571,1.448 -8.573,1.448 -14.44,0 -26.188,-11.748 -26.188,-26.188 z m 68.943,26.188 c -3.003,0 -5.885,-0.514 -8.573,-1.448 5.049,-6.957 8.038,-15.503 8.038,-24.74 0,-9.236 -2.989,-17.781 -8.038,-24.74 2.688,-0.934 5.571,-1.448 8.573,-1.448 14.44,0 26.188,11.748 26.188,26.188 0,14.44 -11.748,26.188 -26.188,26.188 z"
         inkscape:connector-curvature="0" />
      <g
         id="g4318" />
      <g
         id="g4320" />
      <g
         id="g4322" />
      <g
         id="g4324" />
      <g
         id="g4326" />
      <g
         id="g4328" />
      <g
         id="g4330" />
      <g
         id="g4332" />
      <g
         id="g4334" />
      <g
         id="g4336" />
      <g
         id="g4338" />
      <g
         id="g4340" />
      <g
         id="g4342" />
      <g
         id="g4344" />
      <g
         id="g4346" />
    </g>
  </g>
</svg>
