<?xml version="1.0" encoding="UTF-8" standalone="no"?>
<!-- Created with Inkscape (http://www.inkscape.org/) -->

<svg
   xmlns:dc="http://purl.org/dc/elements/1.1/"
   xmlns:cc="http://creativecommons.org/ns#"
   xmlns:rdf="http://www.w3.org/1999/02/22-rdf-syntax-ns#"
   xmlns:svg="http://www.w3.org/2000/svg"
   xmlns="http://www.w3.org/2000/svg"
   xmlns:sodipodi="http://sodipodi.sourceforge.net/DTD/sodipodi-0.dtd"
   xmlns:inkscape="http://www.inkscape.org/namespaces/inkscape"
   width="40"
   height="40"
   viewBox="0 0 40 40.000001"
   id="svg2"
   version="1.1"
   inkscape:version="0.91 r13725"
   sodipodi:docname="cajafuerte_form_icon_bank_accounts.svg">
  <defs
     id="defs4" />
  <sodipodi:namedview
     id="base"
     pagecolor="#ffffff"
     bordercolor="#666666"
     borderopacity="1.0"
     inkscape:pageopacity="0.0"
     inkscape:pageshadow="2"
     inkscape:zoom="15.839192"
     inkscape:cx="29.284745"
     inkscape:cy="21.469661"
     inkscape:document-units="px"
     inkscape:current-layer="layer1"
     showgrid="false"
     units="px"
     inkscape:window-width="1920"
     inkscape:window-height="1027"
     inkscape:window-x="1912"
     inkscape:window-y="-8"
     inkscape:window-maximized="1" />
  <metadata
     id="metadata7">
    <rdf:RDF>
      <cc:Work
         rdf:about="">
        <dc:format>image/svg+xml</dc:format>
        <dc:type
           rdf:resource="http://purl.org/dc/dcmitype/StillImage" />
        <dc:title></dc:title>
      </cc:Work>
    </rdf:RDF>
  </metadata>
  <g
     inkscape:label="Layer 1"
     inkscape:groupmode="layer"
     id="layer1"
     transform="translate(0,-1012.3622)">
    <g
       transform="matrix(0.078125,0,0,0.078125,230.10912,1214.4017)"
       id="g8266">
      <g
         transform="translate(-2945.3967,-2586.6252)"
         id="g4464">
        <rect
           x="102.079"
           y="200.418"
           style="fill:#ffffff;fill-opacity:1"
           width="307.841"
           height="205.228"
           id="rect4402" />
        <g
           id="g4404">
          <rect
             x="136.284"
             y="200.418"
             style="fill:#f6c65b;fill-opacity:1"
             width="34.205002"
             height="205.228"
             id="rect4406" />
          <rect
             x="273.10199"
             y="200.418"
             style="fill:#f6c65b;fill-opacity:1"
             width="34.205002"
             height="205.228"
             id="rect4408" />
          <rect
             x="341.51099"
             y="200.418"
             style="fill:#f6c65b;fill-opacity:1"
             width="34.205002"
             height="205.228"
             id="rect4410" />
          <rect
             x="204.69299"
             y="200.418"
             style="fill:#f6c65b;fill-opacity:1"
             width="34.205002"
             height="205.228"
             id="rect4412" />
          <rect
             x="67.875"
             y="200.418"
             style="fill:#f6c65b;fill-opacity:1"
             width="34.205002"
             height="205.228"
             id="rect4414" />
          <rect
             x="409.92099"
             y="200.418"
             style="fill:#f6c65b;fill-opacity:1"
             width="34.205002"
             height="205.228"
             id="rect4416" />
        </g>
        <rect
           x="42.221001"
           y="405.64499"
           style="fill:#ffffff;fill-opacity:1"
           width="427.55701"
           height="34.205002"
           id="rect4418" />
        <rect
           x="16.568001"
           y="439.85001"
           style="fill:#f6c65b;fill-opacity:1"
           width="478.86401"
           height="34.205002"
           id="rect4420" />
        <rect
           x="42.221001"
           y="166.213"
           style="fill:#3e9bd5;fill-opacity:1"
           width="427.55701"
           height="34.205002"
           id="rect4422" />
        <polygon
           style="fill:#f6c65b;fill-opacity:1"
           points="8.017,166.213 8.017,140.56 256,37.946 503.983,140.56 503.983,166.213 "
           id="polygon4424" />
        <path
           inkscape:connector-curvature="0"
           d="M 507.049,133.152 259.066,30.538 c -1.962,-0.812 -4.168,-0.812 -6.13,0 L 4.952,133.152 C 1.955,134.392 0,137.316 0,140.56 l 0,25.653 c 0,4.427 3.589,8.017 8.017,8.017 l 26.188,0 0,26.188 c 0,4.427 3.589,8.017 8.017,8.017 l 17.637,0 0,189.194 -17.638,0 c -4.427,0 -8.017,3.589 -8.017,8.017 l 0,26.188 -17.636,0 c -4.427,0 -8.017,3.589 -8.017,8.017 l 0,34.205 c 0,4.427 3.589,8.017 8.017,8.017 l 478.864,0 c 4.427,0 8.017,-3.589 8.017,-8.017 l 0,-34.206 c 0,-4.427 -3.589,-8.017 -8.017,-8.017 l -17.637,0 0,-26.188 c 0,-4.427 -3.589,-8.017 -8.017,-8.017 l -17.637,0 0,-189.194 17.637,0 c 4.427,0 8.017,-3.589 8.017,-8.017 l 0,-26.187 26.188,0 c 4.427,0 8.017,-3.589 8.017,-8.017 l 0,-25.653 c 0,-3.244 -1.955,-6.168 -4.951,-7.408 z m -431.158,75.282 18.171,0 0,189.194 -18.171,0 0,-189.194 z m 52.376,0 0,189.194 -18.171,0 0,-189.194 18.171,0 z m 34.205,0 0,189.194 -18.171,0 0,-189.194 18.171,0 z m 34.204,0 0,189.194 -18.171,0 0,-189.194 18.171,0 z m 34.205,0 0,189.194 -18.171,0 0,-189.194 18.171,0 z m 34.205,0 0,189.194 -18.171,0 0,-189.194 18.171,0 z m 34.204,0 0,189.194 -18.171,0 0,-189.194 18.171,0 z m 34.205,0 0,189.194 -18.171,0 0,-189.194 18.171,0 z m 34.204,0 0,189.194 -18.171,0 0,-189.194 18.171,0 z m 34.205,0 0,189.194 -18.171,0 0,-189.194 18.171,0 z m 85.511,257.604 -462.83,0 0,-18.171 462.831,0 0,18.171 z m -25.653,-34.205 -411.524,0 0,-18.171 411.524,0 0,18.171 z m -25.653,-34.205 -18.171,0 0,-189.194 18.171,0 0,189.194 z m 25.653,-205.227 -411.524,0 0,-18.171 411.524,0 0,18.171 z m 34.205,-34.205 -479.934,0 0,-12.278 L 256,46.622 l 239.967,99.296 0,12.278 z"
           id="path4426" />
        <g
           id="g4428" />
        <g
           id="g4430" />
        <g
           id="g4432" />
        <g
           id="g4434" />
        <g
           id="g4436" />
        <g
           id="g4438" />
        <g
           id="g4440" />
        <g
           id="g4442" />
        <g
           id="g4444" />
        <g
           id="g4446" />
        <g
           id="g4448" />
        <g
           id="g4450" />
        <g
           id="g4452" />
        <g
           id="g4454" />
        <g
           id="g4456" />
      </g>
      <circle
         style="fill:#f0353d;fill-opacity:1"
         cx="-2689.5"
         cy="-2484.1377"
         r="30.235991"
         id="circle6568-6-7" />
    </g>
  </g>
</svg>
