<?xml version="1.0" encoding="UTF-8" standalone="no"?>
<!-- Created with Inkscape (http://www.inkscape.org/) -->

<svg
   xmlns:dc="http://purl.org/dc/elements/1.1/"
   xmlns:cc="http://creativecommons.org/ns#"
   xmlns:rdf="http://www.w3.org/1999/02/22-rdf-syntax-ns#"
   xmlns:svg="http://www.w3.org/2000/svg"
   xmlns="http://www.w3.org/2000/svg"
   xmlns:sodipodi="http://sodipodi.sourceforge.net/DTD/sodipodi-0.dtd"
   xmlns:inkscape="http://www.inkscape.org/namespaces/inkscape"
   width="40"
   height="40"
   viewBox="0 0 40 40.000001"
   id="svg2"
   version="1.1"
   inkscape:version="0.91 r13725"
   sodipodi:docname="cajafuerte_form_icon_passwords.svg">
  <defs
     id="defs4" />
  <sodipodi:namedview
     id="base"
     pagecolor="#ffffff"
     bordercolor="#666666"
     borderopacity="1.0"
     inkscape:pageopacity="0.0"
     inkscape:pageshadow="2"
     inkscape:zoom="15.839192"
     inkscape:cx="10.968466"
     inkscape:cy="21.24112"
     inkscape:document-units="px"
     inkscape:current-layer="layer1"
     showgrid="false"
     units="px"
     inkscape:window-width="1920"
     inkscape:window-height="1027"
     inkscape:window-x="1912"
     inkscape:window-y="-8"
     inkscape:window-maximized="1" />
  <metadata
     id="metadata7">
    <rdf:RDF>
      <cc:Work
         rdf:about="">
        <dc:format>image/svg+xml</dc:format>
        <dc:type
           rdf:resource="http://purl.org/dc/dcmitype/StillImage" />
        <dc:title></dc:title>
      </cc:Work>
    </rdf:RDF>
  </metadata>
  <g
     inkscape:label="Layer 1"
     inkscape:groupmode="layer"
     id="layer1"
     transform="translate(0,-1012.3622)">
    <g
       transform="matrix(0.08837747,0,0,0.08837747,25.617848,1294.1233)"
       id="g8178">
      <g
         transform="matrix(0.967271,0,0,0.88399052,-189.26579,-948.11536)"
         id="g7032">
        <g
           id="g6089"
           transform="translate(-130.16304,-2534.0096)">
          <path
             id="path6017"
             d="M 282.524,7.887 C 205.947,8.327 144.559,71.61 144.559,148.188 l 0,36.322 42.053,0 0,-36.615 c 0,-53.25 42.52,-97.436 95.768,-97.952 53.769,-0.52 97.677,43.068 97.677,96.719 l 0,75.193 c 0,11.402 8.866,21.112 20.26,21.517 11.962,0.425 21.793,-9.146 21.793,-21.013 l 0,-75.696 C 422.111,69.87 359.417,7.446 282.524,7.887 Z"
             style="fill:#3e9bd5;fill-opacity:1"
             inkscape:connector-curvature="0" />
          <path
             id="path6019"
             d="m 464.164,504.115 -361.659,0 0,-250.218 c 0,-17.419 14.12,-31.54 31.54,-31.54 l 298.579,0 c 17.419,0 31.54,14.122 31.54,31.54 l 0,250.218 z"
             style="fill:#f6c65b;fill-opacity:1"
             inkscape:connector-curvature="0" />
          <g
             id="g6021" />
          <path
             id="path6027"
             d="m 134.045,222.357 c -17.42,0 -31.54,14.12 -31.54,31.54 l 0,250.218 180.83,0 0,-281.758 -149.29,0 z"
             style="fill:#f6c65b;fill-opacity:1"
             inkscape:connector-curvature="0" />
          <g
             id="g6029" />
          <g
             id="g6035">
            <path
               id="path6037"
               d="m 422.111,390.045 c -4.355,0 -7.885,-3.53 -7.885,-7.885 l 0,-105.133 c 0,-4.355 3.53,-7.885 7.885,-7.885 4.355,0 7.885,3.53 7.885,7.885 l 0,105.133 c 0,4.355 -3.53,7.885 -7.885,7.885 z"
               style="fill:#ffffff"
               inkscape:connector-curvature="0" />
            <path
               id="path6039"
               d="m 422.111,461.536 c -4.355,0 -7.885,-3.53 -7.885,-7.885 l 0,-42.053 c 0,-4.355 3.53,-7.885 7.885,-7.885 4.355,0 7.885,3.53 7.885,7.885 l 0,42.053 c 0,4.355 -3.53,7.885 -7.885,7.885 z"
               style="fill:#ffffff"
               inkscape:connector-curvature="0" />
          </g>
          <g
             id="g6041">
            <path
               id="path6043"
               d="m 80.546,191.075 -32.71,0 c -4.355,0 -7.885,-3.53 -7.885,-7.885 0,-4.355 3.53,-7.885 7.885,-7.885 l 32.71,0 c 4.355,0 7.885,3.53 7.885,7.885 0,4.355 -3.53,7.885 -7.885,7.885 z"
               style="fill:#f0353d"
               inkscape:connector-curvature="0" />
            <path
               id="path6045"
               d="m 89.678,164.312 c -2.018,0 -4.036,-0.77 -5.575,-2.31 L 63.288,141.187 c -3.079,-3.079 -3.079,-8.072 0,-11.152 3.079,-3.08 8.072,-3.079 11.15,0 l 20.815,20.815 c 3.079,3.079 3.079,8.072 0,11.152 -1.539,1.54 -3.558,2.31 -5.575,2.31 z"
               style="fill:#f0353d"
               inkscape:connector-curvature="0" />
            <path
               id="path6047"
               d="m 68.651,238.653 c -2.018,0 -4.036,-0.77 -5.575,-2.31 -3.079,-3.079 -3.079,-8.072 0,-11.15 l 20.815,-20.815 c 3.079,-3.079 8.072,-3.079 11.15,0 3.079,3.079 3.079,8.072 0,11.15 l -20.815,20.815 c -1.539,1.54 -3.557,2.31 -5.575,2.31 z"
               style="fill:#f0353d"
               inkscape:connector-curvature="0" />
          </g>
          <path
             style="fill:#000000"
             id="path6049"
             d="m 432.624,214.472 -2.628,0 0,-67.811 c 0,-39.275 -15.378,-76.194 -43.302,-103.959 C 358.977,15.144 322.305,0 283.343,0 283.056,0 282.767,0.001 282.479,0.002 202.081,0.464 136.674,66.94 136.674,148.188 l 0,36.322 c 0,4.355 3.53,7.885 7.885,7.885 l 42.053,0 c 4.355,0 7.885,-3.53 7.885,-7.885 l 0,-36.615 c 0,-49.193 39.459,-89.597 87.96,-90.067 23.882,-0.187 46.361,8.91 63.356,25.741 16.998,16.835 26.36,39.241 26.36,63.093 l 0,67.811 -238.128,0 c -21.74,0 -39.425,17.686 -39.425,39.425 l 0,250.218 c 0,4.355 3.53,7.885 7.885,7.885 l 361.659,0 c 4.355,0 7.885,-3.53 7.885,-7.885 l 0,-250.219 c 0,-21.739 -17.685,-39.425 -39.425,-39.425 z M 356.909,72.363 C 336.9,52.547 310.405,41.754 282.304,42.058 225.191,42.612 178.727,90.089 178.727,147.894 l 0,28.73 -26.283,0 0,-28.437 c 0,-72.602 58.374,-132.003 130.126,-132.416 0.259,-0.001 0.512,-0.002 0.771,-0.002 34.765,0 67.497,13.519 92.235,38.115 24.924,24.782 38.651,57.731 38.651,92.776 l 0,67.811 -26.283,0 0,-67.811 C 387.943,118.568 376.921,92.182 356.909,72.363 Z m 99.37,423.867 -345.889,0 0,-242.333 c 0,-13.044 10.611,-23.655 23.655,-23.655 l 246.037,0 42.029,0 10.513,0 c 13.044,0 23.655,10.611 23.655,23.655 l 0,242.333 z"
             inkscape:connector-curvature="0" />
          <g
             id="g6053" />
          <g
             id="g6055" />
          <g
             id="g6057" />
          <g
             id="g6059" />
          <g
             id="g6061" />
          <g
             id="g6063" />
          <g
             id="g6065" />
          <g
             id="g6067" />
          <g
             id="g6069" />
          <g
             id="g6071" />
          <g
             id="g6073" />
          <g
             id="g6075" />
          <g
             id="g6077" />
          <g
             id="g6079" />
          <g
             id="g6081" />
        </g>
      </g>
      <path
         inkscape:connector-curvature="0"
         style="fill:#3e9bd5;fill-opacity:1"
         d="m -43.246627,-2856.9201 c -40.667133,0 -73.636003,32.9677 -73.636003,73.636 l 147.272003,0 c 0,-40.6683 -32.9676819,-73.636 -73.636,-73.636 z"
         id="path6481-1" />
      <path
         inkscape:connector-curvature="0"
         d="m -135.3807,-2789.61 c 0,8.2885 6.72063,15.0103 15.0103,15.0103 8.29087,0 15.0103,-6.7218 15.0103,-15.0103 0,-33.1067 26.93447,-60.0424 60.042403,-60.0424 33.107933,0 60.042403,26.9345 60.042403,60.0424 0,8.2885 6.720633,15.0103 15.010299,15.0103 8.290874,0 15.010298,-6.7218 15.010298,-15.0103 0,-49.6607 -40.4023079,-90.063 -90.063,-90.063 -49.660695,0 -90.063003,40.4023 -90.063003,90.063 z"
         id="path6485-3" />
      <circle
         style="fill:#3e9bd5;fill-opacity:1"
         cx="-34.712154"
         cy="-2931.2734"
         r="31.068001"
         id="circle6479-6" />
      <path
         style="fill:#000000;fill-opacity:1"
         inkscape:connector-curvature="0"
         d="m 0.3426033,-2930.7886 c 0,-23.983 -19.5120003,-43.495 -43.4950003,-43.495 -23.983,0 -43.495,19.512 -43.495,43.495 0,23.983 19.512,43.495 43.495,43.495 23.983,0 43.4950003,-19.512 43.4950003,-43.495 z m -62.1360003,0 c 0,-10.279 8.362,-18.641 18.641,-18.641 10.279,0 18.641,8.362 18.641,18.641 0,10.279 -8.362,18.641 -18.641,18.641 -10.279,0 -18.641,-8.361 -18.641,-18.641 z"
         id="path6483-5" />
    </g>
  </g>
</svg>
