<?xml version="1.0" encoding="UTF-8" standalone="no"?>
<!-- Created with Inkscape (http://www.inkscape.org/) -->

<svg
   xmlns:dc="http://purl.org/dc/elements/1.1/"
   xmlns:cc="http://creativecommons.org/ns#"
   xmlns:rdf="http://www.w3.org/1999/02/22-rdf-syntax-ns#"
   xmlns:svg="http://www.w3.org/2000/svg"
   xmlns="http://www.w3.org/2000/svg"
   xmlns:sodipodi="http://sodipodi.sourceforge.net/DTD/sodipodi-0.dtd"
   xmlns:inkscape="http://www.inkscape.org/namespaces/inkscape"
   width="40"
   height="40"
   viewBox="0 0 40 40.000001"
   id="svg2"
   version="1.1"
   inkscape:version="0.91 r13725"
   sodipodi:docname="cajafuerte_form_icon_ids.svg">
  <defs
     id="defs4" />
  <sodipodi:namedview
     id="base"
     pagecolor="#ffffff"
     bordercolor="#666666"
     borderopacity="1.0"
     inkscape:pageopacity="0.0"
     inkscape:pageshadow="2"
     inkscape:zoom="5.6"
     inkscape:cx="64.488526"
     inkscape:cy="-22.307508"
     inkscape:document-units="px"
     inkscape:current-layer="layer1"
     showgrid="false"
     units="px"
     inkscape:window-width="1920"
     inkscape:window-height="1027"
     inkscape:window-x="-8"
     inkscape:window-y="-8"
     inkscape:window-maximized="1" />
  <metadata
     id="metadata7">
    <rdf:RDF>
      <cc:Work
         rdf:about="">
        <dc:format>image/svg+xml</dc:format>
        <dc:type
           rdf:resource="http://purl.org/dc/dcmitype/StillImage" />
        <dc:title></dc:title>
      </cc:Work>
    </rdf:RDF>
  </metadata>
  <g
     inkscape:label="Layer 1"
     inkscape:groupmode="layer"
     id="layer1"
     transform="translate(0,-1012.3622)">
    <g
       id="g6531"
       transform="matrix(0.07812485,0,0,0.07812485,0,1010.7955)">
      <polygon
         id="polygon6473"
         points="161.678,155.642 161.678,130.787 149.25,118.36 136.823,130.787 136.823,155.642 "
         style="fill:#4c5870" />
      <path
         id="path6475"
         d="m 473.476,124.574 -437.437,0 c -13.67,0 -24.854,11.184 -24.854,24.854 l 0,268.427 c 0,13.67 11.184,24.854 24.854,24.854 l 437.437,0 c 13.67,0 24.854,-11.184 24.854,-24.854 l 0,-268.427 c 0,-13.67 -11.184,-24.854 -24.854,-24.854 z"
         style="fill:#f6c65b;fill-opacity:1"
         inkscape:connector-curvature="0" />
      <g
         id="g6477">
        <circle
           id="circle6479"
           r="31.068001"
           cy="241.386"
           cx="357.90302"
           style="fill:#3e9bd5;fill-opacity:1" />
        <path
           id="path6481"
           d="m 356.66,302.283 c -34.316,0 -62.136,27.819 -62.136,62.136 l 124.272,0 c 0,-34.317 -27.819,-62.136 -62.136,-62.136 z"
           style="fill:#3e9bd5;fill-opacity:1"
           inkscape:connector-curvature="0" />
      </g>
      <path
         id="path6483"
         d="m 406.369,233.815 c 0,-23.983 -19.512,-43.495 -43.495,-43.495 -23.983,0 -43.495,19.512 -43.495,43.495 0,23.983 19.512,43.495 43.495,43.495 23.983,0 43.495,-19.512 43.495,-43.495 z m -62.136,0 c 0,-10.279 8.362,-18.641 18.641,-18.641 10.279,0 18.641,8.362 18.641,18.641 0,10.279 -8.362,18.641 -18.641,18.641 -10.279,0 -18.641,-8.361 -18.641,-18.641 z"
         inkscape:connector-curvature="0"
         style="fill:#000000;fill-opacity:1" />
      <path
         id="path6485"
         d="m 288.311,364.3 c 0,6.862 5.564,12.427 12.427,12.427 6.864,0 12.427,-5.565 12.427,-12.427 0,-27.409 22.299,-49.709 49.709,-49.709 27.41,0 49.709,22.299 49.709,49.709 0,6.862 5.564,12.427 12.427,12.427 6.864,0 12.427,-5.565 12.427,-12.427 0,-41.114 -33.449,-74.563 -74.563,-74.563 -41.114,0 -74.563,33.449 -74.563,74.563 z"
         inkscape:connector-curvature="0" />
      <path
         id="path6487"
         d="m 474.718,111.794 -313.04,0 0,-6.445 c 0,-26.8 -21.803,-48.604 -48.604,-48.604 -26.799,0 -48.603,21.803 -48.603,48.604 l 0,107.428 c 0,19.964 16.242,36.207 36.207,36.207 19.965,0 36.207,-16.241 36.207,-36.207 l 0,-51.276 c 0,-6.862 -5.564,-12.427 -12.427,-12.427 -6.864,0 -12.427,5.565 -12.427,12.427 l 0,51.276 c 0,6.26 -5.093,11.352 -11.352,11.352 -6.259,0 -11.352,-5.093 -11.352,-11.352 l 0,-107.428 c 0,-13.096 10.654,-23.75 23.748,-23.75 13.094,0 23.75,10.654 23.75,23.75 l 0,6.445 -22.645,0 c -6.864,0 -12.427,5.565 -12.427,12.427 0,6.862 5.564,12.427 12.427,12.427 l 360.54,0 c 6.852,0 12.427,5.575 12.427,12.427 l 0,268.898 c 0,6.852 -5.575,12.427 -12.427,12.427 l -437.438,0 c -6.852,0 -12.427,-5.575 -12.427,-12.427 l 0,-268.898 c 0,-6.852 5.575,-12.427 12.427,-12.427 l 2.334,0 c 6.864,0 12.427,-5.565 12.427,-12.427 0,-6.862 -5.564,-12.427 -12.427,-12.427 l -2.334,0 C 16.725,111.794 0,128.518 0,149.075 l 0,268.898 c 0,20.557 16.725,37.282 37.282,37.282 l 437.437,0 c 20.557,0 37.282,-16.725 37.282,-37.282 l 0,-268.898 C 512,128.518 495.275,111.794 474.718,111.794 Z"
         inkscape:connector-curvature="0" />
      <path
         id="path6489"
         d="m 226.175,235.346 c 6.864,0 12.427,-5.565 12.427,-12.427 0,-6.862 -5.564,-12.427 -12.427,-12.427 l -64.436,0 c -6.864,0 -12.427,5.565 -12.427,12.427 0,6.862 5.564,12.427 12.427,12.427 l 64.436,0 z"
         inkscape:connector-curvature="0"
         style="fill:#f0353d;fill-opacity:1" />
      <path
         id="path6491"
         d="m 74.563,281.993 c 0,6.862 5.564,12.427 12.427,12.427 l 139.184,0 c 6.864,0 12.427,-5.565 12.427,-12.427 0,-6.862 -5.564,-12.427 -12.427,-12.427 l -139.184,0 c -6.863,0 -12.427,5.564 -12.427,12.427 z"
         inkscape:connector-curvature="0"
         style="fill:#ffffff" />
      <path
         id="path6493"
         d="m 86.99,356.556 139.184,0 c 6.864,0 12.427,-5.565 12.427,-12.427 0,-6.862 -5.564,-12.427 -12.427,-12.427 l -139.184,0 c -6.864,0 -12.427,5.565 -12.427,12.427 0,6.862 5.564,12.427 12.427,12.427 z"
         inkscape:connector-curvature="0"
         style="fill:#ffffff" />
      <g
         id="g6495" />
      <g
         id="g6497" />
      <g
         id="g6499" />
      <g
         id="g6501" />
      <g
         id="g6503" />
      <g
         id="g6505" />
      <g
         id="g6507" />
      <g
         id="g6509" />
      <g
         id="g6511" />
      <g
         id="g6513" />
      <g
         id="g6515" />
      <g
         id="g6517" />
      <g
         id="g6519" />
      <g
         id="g6521" />
      <g
         id="g6523" />
    </g>
  </g>
</svg>
